<svg xmlns="http://www.w3.org/2000/svg" viewBox="0 0 320 55" fill="none">
  <!-- CA Symbol Group - compact -->
  <g transform="translate(0, 2)">
    <!-- Bottom underline bar -->
    <rect x="3" y="42" width="42" height="4" rx="1" fill="#006B4F"/>
    <!-- Letter A -->
    <path d="M14 40 L26 6 L29 6 L41 40 L36 40 L33 32 L22 32 L19 40 Z" fill="#006B4F"/>
    <path d="M24 27 L31 27 L27.5 16 Z" fill="white"/>
    <!-- Swooping C -->
    <path d="M8 35 C5 28, 10 14, 24 9 C30 7, 40 8, 44 11 C38 9, 30 10, 23 14 C14 20, 10 28, 11 35 Z" fill="#006B4F"/>
    <!-- Red accent -->
    <path d="M37 8 L41 5 L44 8 L40 11 Z" fill="#E30613"/>
  </g>
  <!-- Text -->
  <text x="55" y="23" font-family="Arial, Helvetica, sans-serif" font-weight="800" font-size="14" fill="#006B4F" letter-spacing="0.3">PERSONAL FINANCE</text>
  <text x="55" y="42" font-family="Arial, Helvetica, sans-serif" font-weight="800" font-size="14" fill="#006B4F" letter-spacing="0.3">&amp; MOBILITY</text>
</svg>
