<svg xmlns="http://www.w3.org/2000/svg" viewBox="0 0 64 64">
  <circle cx="32" cy="32" r="31.2" fill="#ffffff" stroke="#E2E8F0" stroke-width="1.4"/>
  <!-- Monogramme CA (mis a l'echelle et centre) -->
  <g transform="translate(13.5, 6) scale(0.6)">
    <rect x="7" y="42" width="47" height="4.5" rx="1.2" fill="#006A4F"/>
    <path d="M17 50 L30 11 L35 11 L48 50 L40.5 50 L37.2 39.5 L25.4 39.5 L22 50 Z" fill="#006A4F"/>
    <path d="M27 34 L35.4 34 L31.3 20.5 Z" fill="#ffffff"/>
    <path d="M7 45 C0.5 28, 15 9.5, 37 7.6 C45.5 6.9, 53 9, 56.5 13 C51.5 10.6, 44.5 10.4, 37.5 11.5 C19.5 14, 9.5 28, 12.5 45 Z" fill="#009B9B"/>
    <path d="M50.5 7 L58 3.6 L61 8 L53.5 11.4 Z" fill="#E30613"/>
  </g>
  <!-- MARTY -->
  <text x="32" y="52.5" text-anchor="middle" font-family="Arial, Helvetica, sans-serif" font-weight="800" font-size="10" letter-spacing="0.6" fill="#006A4F">MARTY</text>
</svg>
